<svg height="600" width="800" xmlns="http://www.w3.org/2000/svg">
<rect width="800" height="600" x="0" y="0" fill="white" /><line x1="400" y1="300" x2="533.333" y2="300" style="stroke:black;stroke-width:1" />
<line x1="400" y1="300" x2="400" y2="400" style="stroke:black;stroke-width:1" />
<line x1="400" y1="300" x2="133.333" y2="300" style="stroke:black;stroke-width:1" />
<line x1="533.333" y1="300" x2="400" y2="300" style="stroke:black;stroke-width:1" />
<line x1="533.333" y1="300" x2="533.333" y2="400" style="stroke:black;stroke-width:1" />
<line x1="533.333" y1="300" x2="666.667" y2="300" style="stroke:black;stroke-width:1" />
<line x1="400" y1="400" x2="400" y2="300" style="stroke:black;stroke-width:1" />
<line x1="400" y1="400" x2="533.333" y2="400" style="stroke:black;stroke-width:1" />
<line x1="400" y1="400" x2="400" y2="500" style="stroke:black;stroke-width:1" />
<line x1="400" y1="400" x2="266.667" y2="400" style="stroke:black;stroke-width:1" />
<line x1="533.333" y1="400" x2="533.333" y2="300" style="stroke:black;stroke-width:1" />
<line x1="533.333" y1="400" x2="400" y2="400" style="stroke:black;stroke-width:1" />
<line x1="533.333" y1="400" x2="533.333" y2="500" style="stroke:black;stroke-width:1" />
<line x1="533.333" y1="400" x2="666.667" y2="400" style="stroke:black;stroke-width:1" />
<line x1="400" y1="500" x2="400" y2="400" style="stroke:black;stroke-width:1" />
<line x1="400" y1="500" x2="533.333" y2="500" style="stroke:black;stroke-width:1" />
<line x1="533.333" y1="500" x2="533.333" y2="400" style="stroke:black;stroke-width:1" />
<line x1="533.333" y1="500" x2="400" y2="500" style="stroke:black;stroke-width:1" />
<line x1="666.667" y1="300" x2="533.333" y2="300" style="stroke:black;stroke-width:1" />
<line x1="666.667" y1="300" x2="666.667" y2="400" style="stroke:black;stroke-width:1" />
<line x1="666.667" y1="400" x2="666.667" y2="300" style="stroke:black;stroke-width:1" />
<line x1="666.667" y1="400" x2="533.333" y2="400" style="stroke:black;stroke-width:1" />
<line x1="133.333" y1="300" x2="400" y2="300" style="stroke:black;stroke-width:1" />
<line x1="133.333" y1="300" x2="133.333" y2="400" style="stroke:black;stroke-width:1" />
<line x1="133.333" y1="300" x2="133.333" y2="200" style="stroke:black;stroke-width:1" />
<line x1="133.333" y1="400" x2="133.333" y2="300" style="stroke:black;stroke-width:1" />
<line x1="133.333" y1="400" x2="266.667" y2="400" style="stroke:black;stroke-width:1" />
<line x1="266.667" y1="400" x2="133.333" y2="400" style="stroke:black;stroke-width:1" />
<line x1="266.667" y1="400" x2="400" y2="400" style="stroke:black;stroke-width:1" />
<line x1="266.667" y1="400" x2="266.667" y2="600" style="stroke:black;stroke-width:1" />
<line x1="266.667" y1="600" x2="266.667" y2="400" style="stroke:black;stroke-width:1" />
<line x1="266.667" y1="600" x2="266.667" y2="600" style="stroke:black;stroke-width:1" />
<line x1="266.667" y1="600" x2="266.667" y2="600" style="stroke:black;stroke-width:1" />
<line x1="266.667" y1="600" x2="266.667" y2="200" style="stroke:black;stroke-width:1" />
<line x1="266.667" y1="200" x2="266.667" y2="600" style="stroke:black;stroke-width:1" />
<line x1="266.667" y1="200" x2="133.333" y2="200" style="stroke:black;stroke-width:1" />
<line x1="266.667" y1="200" x2="266.667" y2="100" style="stroke:black;stroke-width:1" />
<line x1="266.667" y1="100" x2="133.333" y2="100" style="stroke:black;stroke-width:1" />
<line x1="266.667" y1="100" x2="266.667" y2="200" style="stroke:black;stroke-width:1" />
<line x1="133.333" y1="100" x2="133.333" y2="200" style="stroke:black;stroke-width:1" />
<line x1="133.333" y1="100" x2="266.667" y2="100" style="stroke:black;stroke-width:1" />
<line x1="133.333" y1="200" x2="266.667" y2="200" style="stroke:black;stroke-width:1" />
<line x1="133.333" y1="200" x2="133.333" y2="100" style="stroke:black;stroke-width:1" />
<line x1="133.333" y1="200" x2="133.333" y2="300" style="stroke:black;stroke-width:1" />
<circle cx="400" cy="300" r="4" fill="black" />
<text x="402" y="298" font-family="Verdana" font-size="16" fill="black">0</text>
<circle cx="533.333" cy="300" r="4" fill="black" />
<text x="535.333" y="298" font-family="Verdana" font-size="16" fill="black">1</text>
<circle cx="400" cy="400" r="4" fill="black" />
<text x="402" y="398" font-family="Verdana" font-size="16" fill="black">2</text>
<circle cx="533.333" cy="400" r="4" fill="black" />
<text x="535.333" y="398" font-family="Verdana" font-size="16" fill="black">3</text>
<circle cx="400" cy="500" r="4" fill="black" />
<text x="402" y="498" font-family="Verdana" font-size="16" fill="black">4</text>
<circle cx="533.333" cy="500" r="4" fill="black" />
<text x="535.333" y="498" font-family="Verdana" font-size="16" fill="black">5</text>
<circle cx="666.667" cy="300" r="4" fill="black" />
<text x="668.667" y="298" font-family="Verdana" font-size="16" fill="black">6</text>
<circle cx="666.667" cy="400" r="4" fill="black" />
<text x="668.667" y="398" font-family="Verdana" font-size="16" fill="black">7</text>
<circle cx="133.333" cy="300" r="4" fill="black" />
<text x="135.333" y="298" font-family="Verdana" font-size="16" fill="black">8</text>
<circle cx="133.333" cy="400" r="4" fill="black" />
<text x="135.333" y="398" font-family="Verdana" font-size="16" fill="black">9</text>
<circle cx="266.667" cy="400" r="4" fill="black" />
<text x="268.667" y="398" font-family="Verdana" font-size="16" fill="black">10</text>
<circle cx="266.667" cy="600" r="4" fill="black" />
<text x="268.667" y="598" font-family="Verdana" font-size="16" fill="black">11</text>
<circle cx="266.667" cy="600" r="4" fill="black" />
<text x="268.667" y="598" font-family="Verdana" font-size="16" fill="black">12</text>
<circle cx="266.667" cy="200" r="4" fill="black" />
<text x="268.667" y="198" font-family="Verdana" font-size="16" fill="black">13</text>
<circle cx="266.667" cy="100" r="4" fill="black" />
<text x="268.667" y="98" font-family="Verdana" font-size="16" fill="black">14</text>
<circle cx="133.333" cy="100" r="4" fill="black" />
<text x="135.333" y="98" font-family="Verdana" font-size="16" fill="black">15</text>
<circle cx="133.333" cy="200" r="4" fill="black" />
<text x="135.333" y="198" font-family="Verdana" font-size="16" fill="black">16</text>
</svg>
