<svg height="600" width="800" xmlns="http://www.w3.org/2000/svg">
<rect width="800" height="600" x="0" y="0" fill="white" /><line x1="400" y1="300" x2="533.333" y2="300" style="stroke:black;stroke-width:1" />
<line x1="400" y1="300" x2="400" y2="400" style="stroke:black;stroke-width:1" />
<line x1="400" y1="300" x2="133.333" y2="300" style="stroke:black;stroke-width:1" />
<line x1="533.333" y1="300" x2="400" y2="300" style="stroke:black;stroke-width:1" />
<line x1="533.333" y1="300" x2="533.333" y2="400" style="stroke:black;stroke-width:1" />
<line x1="533.333" y1="300" x2="666.667" y2="300" style="stroke:black;stroke-width:1" />
<line x1="400" y1="400" x2="400" y2="300" style="stroke:black;stroke-width:1" />
<line x1="400" y1="400" x2="533.333" y2="400" style="stroke:black;stroke-width:1" />
<line x1="400" y1="400" x2="400" y2="500" style="stroke:black;stroke-width:1" />
<line x1="400" y1="400" x2="266.667" y2="400" style="stroke:black;stroke-width:1" />
<line x1="533.333" y1="400" x2="533.333" y2="300" style="stroke:black;stroke-width:1" />
<line x1="533.333" y1="400" x2="400" y2="400" style="stroke:black;stroke-width:1" />
<line x1="533.333" y1="400" x2="533.333" y2="500" style="stroke:black;stroke-width:1" />
<line x1="533.333" y1="400" x2="666.667" y2="400" style="stroke:black;stroke-width:1" />
<line x1="400" y1="500" x2="400" y2="400" style="stroke:black;stroke-width:1" />
<line x1="400" y1="500" x2="533.333" y2="500" style="stroke:black;stroke-width:1" />
<line x1="533.333" y1="500" x2="533.333" y2="400" style="stroke:black;stroke-width:1" />
<line x1="533.333" y1="500" x2="400" y2="500" style="stroke:black;stroke-width:1" />
<line x1="666.667" y1="300" x2="533.333" y2="300" style="stroke:black;stroke-width:1" />
<line x1="666.667" y1="300" x2="666.667" y2="400" style="stroke:black;stroke-width:1" />
<line x1="666.667" y1="400" x2="666.667" y2="300" style="stroke:black;stroke-width:1" />
<line x1="666.667" y1="400" x2="533.333" y2="400" style="stroke:black;stroke-width:1" />
<line x1="133.333" y1="300" x2="400" y2="300" style="stroke:black;stroke-width:1" />
<line x1="133.333" y1="300" x2="133.333" y2="400" style="stroke:black;stroke-width:1" />
<line x1="133.333" y1="300" x2="133.333" y2="200" style="stroke:black;stroke-width:1" />
<line x1="133.333" y1="400" x2="133.333" y2="300" style="stroke:black;stroke-width:1" />
<line x1="133.333" y1="400" x2="266.667" y2="400" style="stroke:black;stroke-width:1" />
<line x1="266.667" y1="400" x2="133.333" y2="400" style="stroke:black;stroke-width:1" />
<line x1="266.667" y1="400" x2="400" y2="400" style="stroke:black;stroke-width:1" />
<line x1="266.667" y1="400" x2="266.667" y2="600" style="stroke:black;stroke-width:1" />
<line x1="266.667" y1="600" x2="266.667" y2="400" style="stroke:black;stroke-width:1" />
<line x1="266.667" y1="600" x2="266.667" y2="600" style="stroke:black;stroke-width:1" />
<line x1="266.667" y1="600" x2="266.667" y2="600" style="stroke:black;stroke-width:1" />
<line x1="266.667" y1="600" x2="266.667" y2="200" style="stroke:black;stroke-width:1" />
<line x1="266.667" y1="200" x2="266.667" y2="600" style="stroke:black;stroke-width:1" />
<line x1="266.667" y1="200" x2="133.333" y2="200" style="stroke:black;stroke-width:1" />
<line x1="266.667" y1="200" x2="266.667" y2="100" style="stroke:black;stroke-width:1" />
<line x1="266.667" y1="100" x2="133.333" y2="100" style="stroke:black;stroke-width:1" />
<line x1="266.667" y1="100" x2="266.667" y2="200" style="stroke:black;stroke-width:1" />
<line x1="133.333" y1="100" x2="133.333" y2="200" style="stroke:black;stroke-width:1" />
<line x1="133.333" y1="100" x2="266.667" y2="100" style="stroke:black;stroke-width:1" />
<line x1="133.333" y1="200" x2="266.667" y2="200" style="stroke:black;stroke-width:1" />
<line x1="133.333" y1="200" x2="133.333" y2="100" style="stroke:black;stroke-width:1" />
<line x1="133.333" y1="200" x2="133.333" y2="300" style="stroke:black;stroke-width:1" />
<circle cx="400" cy="300" r="2" fill="black" />
<circle cx="533.333" cy="300" r="2" fill="black" />
<circle cx="400" cy="400" r="2" fill="black" />
<circle cx="533.333" cy="400" r="2" fill="black" />
<circle cx="400" cy="500" r="2" fill="black" />
<circle cx="533.333" cy="500" r="2" fill="black" />
<circle cx="666.667" cy="300" r="2" fill="black" />
<circle cx="666.667" cy="400" r="2" fill="black" />
<circle cx="133.333" cy="300" r="2" fill="black" />
<circle cx="133.333" cy="400" r="2" fill="black" />
<circle cx="266.667" cy="400" r="2" fill="black" />
<circle cx="266.667" cy="600" r="2" fill="black" />
<circle cx="266.667" cy="600" r="2" fill="black" />
<circle cx="266.667" cy="200" r="2" fill="black" />
<circle cx="266.667" cy="100" r="2" fill="black" />
<circle cx="133.333" cy="100" r="2" fill="black" />
<circle cx="133.333" cy="200" r="2" fill="black" />
</svg>
